<svg width="74" height="76" viewBox="0 0 74 76" fill="none" xmlns="http://www.w3.org/2000/svg">
<path d="M37.2385 21.9891C28.2846 21.9891 21 29.391 21 38.4892C21 47.5873 28.2846 54.9892 37.2385 54.9892C46.1925 54.9892 53.4771 47.5873 53.4771 38.4892C53.4771 29.391 46.1925 21.9891 37.2385 21.9891ZM47.975 29.5982C49.9068 31.9964 51.0766 35.051 51.1071 38.3775C50.6498 38.2792 46.0641 37.3341 41.449 37.9238C41.0723 36.9897 40.7169 36.1679 40.23 35.1552C45.3583 33.0277 47.6825 30.0001 47.975 29.5982ZM46.433 27.9684C46.1836 28.3295 44.0957 31.181 39.1636 33.0594C36.8907 28.8162 34.3716 25.3305 33.9882 24.8088C38.3868 23.7315 43.022 24.8933 46.433 27.9684ZM31.3417 25.7562C31.7074 26.2658 34.1859 29.7559 36.4841 33.907C29.9961 35.6577 24.2816 35.6325 23.6613 35.6242C24.5607 31.2508 27.4612 27.616 31.3417 25.7562ZM23.3683 38.5107C23.3683 38.3665 23.3712 38.2231 23.3754 38.08C23.9823 38.0926 30.7037 38.1807 37.6304 36.0743C38.0274 36.8639 38.4067 37.6654 38.7549 38.4661C33.7393 39.9015 29.1824 44.0233 26.9341 47.934C24.7188 45.4355 23.3683 42.1305 23.3683 38.5107ZM28.7249 49.6291C30.1737 46.6196 34.1057 42.7349 39.6976 40.7965C41.645 45.9383 42.4503 50.2476 42.6565 51.4841C38.1967 53.4144 32.8338 52.8848 28.7249 49.6291ZM44.9883 50.1939C44.8462 49.3365 44.1079 45.2108 42.2938 40.1453C46.6402 39.4383 50.4589 40.5956 50.9334 40.7477C50.3152 44.6692 48.1 48.0559 44.9883 50.1939Z" fill="white"/>
<path d="M72.3913 37.8043C72.3913 57.8274 56.5136 74 37 74C17.4864 74 1.6087 57.8274 1.6087 37.8043C1.6087 17.7812 17.4864 1.6087 37 1.6087C56.5136 1.6087 72.3913 17.7812 72.3913 37.8043Z" stroke="white" stroke-width="3.21739"/>
</svg>
