<svg width="74" height="76" viewBox="0 0 74 76" fill="none" xmlns="http://www.w3.org/2000/svg">
<path d="M44.6919 38.5229L45.6181 33.1195H39.8266V29.613C39.8266 28.1347 40.6357 26.6938 43.2295 26.6938H45.8624V22.0933C45.8624 22.0933 43.4731 21.7283 41.1887 21.7283C36.4192 21.7283 33.3017 24.3163 33.3017 29.0013V33.1195H28V38.5229H33.3017V51.5855H39.8266V38.5229H44.6919Z" fill="white"/>
<path d="M72.3913 37.8043C72.3913 57.8274 56.5136 74 37 74C17.4864 74 1.6087 57.8274 1.6087 37.8043C1.6087 17.7812 17.4864 1.6087 37 1.6087C56.5136 1.6087 72.3913 17.7812 72.3913 37.8043Z" stroke="white" stroke-width="3.21739"/>
</svg>
