<svg width="74" height="76" viewBox="0 0 74 76" fill="none" xmlns="http://www.w3.org/2000/svg">
<path d="M36.8361 29.776C32.3433 29.776 28.7194 33.3736 28.7194 37.8339C28.7194 42.2941 32.3433 45.8918 36.8361 45.8918C41.3289 45.8918 44.9528 42.2941 44.9528 37.8339C44.9528 33.3736 41.3289 29.776 36.8361 29.776ZM36.8361 43.0726C33.9327 43.0726 31.5592 40.7232 31.5592 37.8339C31.5592 34.9445 33.9257 32.5952 36.8361 32.5952C39.7465 32.5952 42.113 34.9445 42.113 37.8339C42.113 40.7232 39.7395 43.0726 36.8361 43.0726ZM47.1781 29.4464C47.1781 30.4913 46.3304 31.3258 45.2849 31.3258C44.2323 31.3258 43.3917 30.4843 43.3917 29.4464C43.3917 28.4085 44.2394 27.5669 45.2849 27.5669C46.3304 27.5669 47.1781 28.4085 47.1781 29.4464ZM52.5539 31.3539C52.4338 28.8362 51.8545 26.6061 49.9967 24.7687C48.1459 22.9313 45.8994 22.3563 43.3634 22.23C40.7497 22.0827 32.9155 22.0827 30.3018 22.23C27.7728 22.3492 25.5264 22.9243 23.6685 24.7617C21.8106 26.5991 21.2384 28.8292 21.1113 31.3469C20.9629 33.9417 20.9629 41.7191 21.1113 44.3139C21.2314 46.8315 21.8106 49.0617 23.6685 50.8991C25.5264 52.7365 27.7657 53.3115 30.3018 53.4377C32.9155 53.585 40.7497 53.585 43.3634 53.4377C45.8994 53.3185 48.1459 52.7435 49.9967 50.8991C51.8475 49.0617 52.4267 46.8315 52.5539 44.3139C52.7022 41.7191 52.7022 33.9487 52.5539 31.3539ZM49.1772 47.098C48.6262 48.4726 47.5595 49.5315 46.1679 50.0855C44.084 50.9061 39.139 50.7167 36.8361 50.7167C34.5332 50.7167 29.5812 50.8991 27.5043 50.0855C26.1198 49.5385 25.0531 48.4796 24.495 47.098C23.6685 45.0292 23.8592 40.1201 23.8592 37.8339C23.8592 35.5477 23.6756 30.6316 24.495 28.5697C25.046 27.1952 26.1127 26.1362 27.5043 25.5822C29.5883 24.7617 34.5332 24.9511 36.8361 24.9511C39.139 24.9511 44.091 24.7687 46.1679 25.5822C47.5525 26.1292 48.6192 27.1882 49.1772 28.5697C50.0037 30.6386 49.813 35.5477 49.813 37.8339C49.813 40.1201 50.0037 45.0362 49.1772 47.098Z" fill="white"/>
<path d="M72.3913 37.8043C72.3913 57.8274 56.5136 74 37 74C17.4864 74 1.6087 57.8274 1.6087 37.8043C1.6087 17.7812 17.4864 1.6087 37 1.6087C56.5136 1.6087 72.3913 17.7812 72.3913 37.8043Z" stroke="white" stroke-width="3.21739"/>
</svg>
