<svg width="74" height="76" viewBox="0 0 74 76" fill="none" xmlns="http://www.w3.org/2000/svg">
<path d="M50.5957 29.4955C50.6174 29.8306 50.6174 30.1658 50.6174 30.501C50.6174 40.7232 43.5852 52.5016 30.7323 52.5016C26.7726 52.5016 23.0942 51.2328 20 49.0304C20.5626 49.1022 21.1035 49.1261 21.6877 49.1261C24.955 49.1261 27.9627 47.9052 30.3645 45.8225C27.2919 45.7506 24.717 43.5242 23.8298 40.4599C24.2626 40.5317 24.6954 40.5796 25.1498 40.5796C25.7773 40.5796 26.4048 40.4838 26.989 40.3163C23.7866 39.598 21.3848 36.4859 21.3848 32.7274V32.6316C22.3151 33.2062 23.3971 33.5653 24.5438 33.6131C22.6613 32.2246 21.428 29.8546 21.428 27.1733C21.428 25.7369 21.7742 24.4202 22.3801 23.2711C25.8205 27.9633 30.9919 31.0275 36.7908 31.3628C36.6826 30.7882 36.6177 30.1898 36.6177 29.5913C36.6177 25.3299 39.7335 21.8587 43.6067 21.8587C45.619 21.8587 47.4365 22.7924 48.7132 24.3006C50.2927 23.9654 51.8073 23.319 53.1489 22.4333C52.6295 24.2288 51.526 25.737 50.0763 26.6945C51.4828 26.527 52.846 26.096 54.1009 25.4976C53.149 27.0297 51.9589 28.3942 50.5957 29.4955Z" fill="white"/>
<path d="M72.3913 37.8043C72.3913 57.8274 56.5136 74 37 74C17.4864 74 1.6087 57.8274 1.6087 37.8043C1.6087 17.7812 17.4864 1.6087 37 1.6087C56.5136 1.6087 72.3913 17.7812 72.3913 37.8043Z" stroke="white" stroke-width="3.21739"/>
</svg>
