<svg width="71" height="72" viewBox="0 0 71 72" fill="none" xmlns="http://www.w3.org/2000/svg">
<path d="M71 34.4791C71 31.5664 69.4037 29.0505 67.0556 27.6848V8.84143C67.0556 7.76287 66.1952 4.89575 63.1111 4.89575C62.2335 4.89575 61.362 5.18912 60.6483 5.76106L50.1672 14.1467C44.9026 18.3549 38.2932 20.6735 31.5556 20.6735H7.88889C3.53151 20.6735 0 24.205 0 28.5624V40.3957C0 44.7531 3.53151 48.2846 7.88889 48.2846H12.0429C11.8715 49.5764 11.7742 50.8904 11.7742 52.2291C11.7742 57.1313 12.9156 61.7635 14.9248 65.904C15.5645 67.2217 16.9611 68.0069 18.4255 68.0069H27.5815C30.7926 68.0069 32.7204 64.3287 30.7741 61.7746C28.7525 59.122 27.5507 55.8136 27.5507 52.2291C27.5507 50.8596 27.7504 49.5432 28.0943 48.2846H31.5556C38.2932 48.2846 44.9026 50.6032 50.1659 54.8115L60.6471 63.1971C61.3461 63.7565 62.2146 64.0616 63.1099 64.0624C66.1816 64.0624 67.0543 61.2545 67.0543 60.118V41.2746C69.4037 39.9076 71 37.3918 71 34.4791ZM59.1667 51.9111L55.0928 48.652C48.4365 43.327 40.0756 40.3957 31.5556 40.3957V28.5624C40.0756 28.5624 48.4365 25.6312 55.0928 20.3062L59.1667 17.0471V51.9111Z" fill="#2A953D"/>
</svg>
