<svg width="71" height="71" viewBox="0 0 71 71" fill="none" xmlns="http://www.w3.org/2000/svg">
<g clip-path="url(#clip0_4_1101)">
<path d="M56.8111 28.289L55.9014 29.8754C55.5686 30.4634 54.8586 30.7075 54.2263 30.4745C52.9172 29.9864 51.7191 29.2875 50.6652 28.4111C50.1549 27.9895 50.0217 27.2462 50.3545 26.6693L51.2642 25.0829C50.4988 24.1954 49.8997 23.1637 49.5003 22.0432H47.6698C47.0042 22.0432 46.4273 21.5662 46.3164 20.9006C46.0945 19.5693 46.0834 18.1715 46.3164 16.7848C46.4273 16.1192 47.0042 15.6311 47.6698 15.6311H49.5003C49.8997 14.5106 50.4988 13.4789 51.2642 12.5914L50.3545 11.005C50.0217 10.4281 50.1438 9.6848 50.6652 9.26324C51.7191 8.38683 52.9283 7.68793 54.2263 7.1998C54.8586 6.96683 55.5686 7.2109 55.9014 7.79887L56.8111 9.38527C57.9759 9.17449 59.163 9.17449 60.3278 9.38527L61.2375 7.79887C61.5703 7.2109 62.2803 6.96683 62.9127 7.1998C64.2217 7.68793 65.4198 8.38683 66.4738 9.26324C66.9841 9.6848 67.1172 10.4281 66.7844 11.005L65.8747 12.5914C66.6402 13.4789 67.2392 14.5106 67.6386 15.6311H69.4691C70.1347 15.6311 70.7116 16.1081 70.8225 16.7737C71.0444 18.105 71.0555 19.5028 70.8225 20.8895C70.7116 21.5551 70.1347 22.0432 69.4691 22.0432H67.6386C67.2392 23.1637 66.6402 24.1954 65.8747 25.0829L66.7844 26.6693C67.1172 27.2462 66.9952 27.9895 66.4738 28.4111C65.4198 29.2875 64.2106 29.9864 62.9127 30.4745C62.2803 30.7075 61.5703 30.4634 61.2375 29.8754L60.3278 28.289C59.1741 28.4998 57.9759 28.4998 56.8111 28.289ZM55.6463 21.7659C59.9173 25.0496 64.7875 20.1795 61.5038 15.9084C57.2327 12.6136 52.3625 17.4948 55.6463 21.7659ZM42.8552 38.8392L46.5938 40.7029C47.7142 41.3464 48.2023 42.7109 47.7586 43.9312C46.7713 46.6159 44.8298 49.0787 43.0327 51.2309C42.2117 52.2182 40.7917 52.4623 39.6713 51.8189L36.443 49.9551C34.668 51.475 32.6045 52.6842 30.3525 53.4718V57.1993C30.3525 58.4862 29.4317 59.5956 28.167 59.8175C25.438 60.2834 22.5758 60.3056 19.7469 59.8175C18.4711 59.5956 17.5281 58.4973 17.5281 57.1993V53.4718C15.2761 52.6731 13.2127 51.475 11.4377 49.9551L8.20938 51.8078C7.1 52.4512 5.66891 52.2071 4.84797 51.2198C3.05079 49.0676 1.15375 46.6048 0.16641 43.9312C-0.27734 42.722 0.210785 41.3575 1.33125 40.7029L5.02547 38.8392C4.59282 36.5206 4.59282 34.1354 5.02547 31.8057L1.33125 29.9309C0.210785 29.2875 -0.288433 27.9229 0.16641 26.7137C1.15375 24.029 3.05079 21.5662 4.84797 19.414C5.66891 18.4267 7.08891 18.1826 8.20938 18.8261L11.4377 20.6898C13.2127 19.17 15.2761 17.9607 17.5281 17.1731V13.4345C17.5281 12.1587 18.4378 11.0493 19.7025 10.8275C22.4316 10.3615 25.3048 10.3393 28.1338 10.8164C29.4095 11.0382 30.3525 12.1365 30.3525 13.4345V17.162C32.6045 17.9607 34.668 19.1589 36.443 20.6787L39.6713 18.815C40.7806 18.1715 42.2117 18.4156 43.0327 19.4029C44.8298 21.5551 46.7158 24.0179 47.7031 26.7026C48.1469 27.9118 47.7142 29.2764 46.5938 29.9309L42.8552 31.7946C43.2878 34.1243 43.2878 36.5095 42.8552 38.8392ZM29.8089 41.18C36.3764 32.6378 26.625 22.8864 18.0828 29.4539C11.5153 37.9961 21.2667 47.7475 29.8089 41.18ZM56.8111 61.4482L55.9014 63.0346C55.5686 63.6226 54.8586 63.8667 54.2263 63.6337C52.9172 63.1456 51.7191 62.4467 50.6652 61.5703C50.1549 61.1487 50.0217 60.4054 50.3545 59.8286L51.2642 58.2421C50.4988 57.3546 49.8997 56.3229 49.5003 55.2025H47.6698C47.0042 55.2025 46.4273 54.7254 46.3164 54.0598C46.0945 52.7286 46.0834 51.3307 46.3164 49.944C46.4273 49.2784 47.0042 48.7903 47.6698 48.7903H49.5003C49.8997 47.6698 50.4988 46.6381 51.2642 45.7506L50.3545 44.1642C50.0217 43.5873 50.1438 42.844 50.6652 42.4225C51.7191 41.5461 52.9283 40.8471 54.2263 40.359C54.8586 40.1261 55.5686 40.3701 55.9014 40.9581L56.8111 42.5445C57.9759 42.3337 59.163 42.3337 60.3278 42.5445L61.2375 40.9581C61.5703 40.3701 62.2803 40.1261 62.9127 40.359C64.2217 40.8471 65.4198 41.5461 66.4738 42.4225C66.9841 42.844 67.1172 43.5873 66.7844 44.1642L65.8747 45.7506C66.6402 46.6381 67.2392 47.6698 67.6386 48.7903H69.4691C70.1347 48.7903 70.7116 49.2673 70.8225 49.9329C71.0444 51.2642 71.0555 52.662 70.8225 54.0487C70.7116 54.7143 70.1347 55.2025 69.4691 55.2025H67.6386C67.2392 56.3229 66.6402 57.3546 65.8747 58.2421L66.7844 59.8286C67.1172 60.4054 66.9952 61.1487 66.4738 61.5703C65.4198 62.4467 64.2106 63.1456 62.9127 63.6337C62.2803 63.8667 61.5703 63.6226 61.2375 63.0346L60.3278 61.4482C59.1741 61.659 57.9759 61.659 56.8111 61.4482ZM55.6463 54.914C59.9173 58.1978 64.7875 53.3276 61.5038 49.0565C57.2327 45.7728 52.3625 50.6429 55.6463 54.914Z" fill="#2A953D"/>
</g>
<defs>
<clipPath id="clip0_4_1101">
<rect width="71" height="71" fill="white"/>
</clipPath>
</defs>
</svg>
