<svg width="71" height="71" viewBox="0 0 71 71" fill="none" xmlns="http://www.w3.org/2000/svg">
<g clip-path="url(#clip0_4_1079)">
<path d="M10.65 31.95C14.5661 31.95 17.75 28.7661 17.75 24.85C17.75 20.9339 14.5661 17.75 10.65 17.75C6.73391 17.75 3.55 20.9339 3.55 24.85C3.55 28.7661 6.73391 31.95 10.65 31.95ZM60.35 31.95C64.2661 31.95 67.45 28.7661 67.45 24.85C67.45 20.9339 64.2661 17.75 60.35 17.75C56.4339 17.75 53.25 20.9339 53.25 24.85C53.25 28.7661 56.4339 31.95 60.35 31.95ZM63.9 35.5H56.8C54.8475 35.5 53.0836 36.2877 51.7967 37.5635C56.2675 40.0152 59.4403 44.4416 60.1281 49.7H67.45C69.4136 49.7 71 48.1136 71 46.15V42.6C71 38.6839 67.8161 35.5 63.9 35.5ZM35.5 35.5C42.367 35.5 47.925 29.9421 47.925 23.075C47.925 16.208 42.367 10.65 35.5 10.65C28.633 10.65 23.075 16.208 23.075 23.075C23.075 29.9421 28.633 35.5 35.5 35.5ZM44.02 39.05H43.0992C40.7917 40.1594 38.2291 40.825 35.5 40.825C32.7709 40.825 30.2194 40.1594 27.9008 39.05H26.98C19.9244 39.05 14.2 44.7744 14.2 51.83V55.025C14.2 57.9649 16.5852 60.35 19.525 60.35H51.475C54.4148 60.35 56.8 57.9649 56.8 55.025V51.83C56.8 44.7744 51.0756 39.05 44.02 39.05ZM19.2033 37.5635C17.9164 36.2877 16.1525 35.5 14.2 35.5H7.1C3.18391 35.5 0 38.6839 0 42.6V46.15C0 48.1136 1.58641 49.7 3.55 49.7H10.8608C11.5597 44.4416 14.7325 40.0152 19.2033 37.5635Z" fill="#2A953D"/>
</g>
<defs>
<clipPath id="clip0_4_1079">
<rect width="71" height="71" fill="white"/>
</clipPath>
</defs>
</svg>
